<svg xmlns="http://www.w3.org/2000/svg" viewBox="0 0 1080 1920" role="img">
<defs><marker id="arr" markerWidth="12" markerHeight="12" refX="10" refY="6" orient="auto"><path d="M2,2 L10,6 L2,10 Z" fill="#356d9b"/></marker>
<style>.page-title{font:800 26px "Microsoft YaHei","Noto Sans SC",Arial,sans-serif;fill:#1f1f1f}.page-label{font:800 21px "Microsoft YaHei","Noto Sans SC",Arial,sans-serif;fill:#8a6538}.page-text{font:600 20px "Microsoft YaHei","Noto Sans SC",Arial,sans-serif;fill:#2b2b2b}.svg-name{font:700 14px "Microsoft YaHei","Noto Sans SC",Arial,sans-serif;fill:#222}.svg-muted{font:700 13px "Microsoft YaHei","Noto Sans SC",Arial,sans-serif;fill:#6d655d}.svg-cam{font:900 15px "Microsoft YaHei","Noto Sans SC",Arial,sans-serif;fill:#356d9b}</style></defs>
<rect width="1080" height="1920" fill="#f3eee6"/>
<text x="54" y="54" class="page-title">第7集导演分镜页 2 / 8</text>
<g transform="translate(54,94)">
<rect x="0" y="0" width="960" height="386" rx="10" fill="#fffdf8" stroke="#cfc6ba" stroke-width="2"/>
<text x="26" y="42" class="page-title">7-5｜第一次见｜6秒</text>
<image href="../panels/ep7_panel_7-5.svg" x="26" y="62" width="170" height="302"/>
<g transform="translate(228,54) scale(0.72)"><defs><marker id="arr" markerWidth="12" markerHeight="12" refX="10" refY="6" orient="auto"><path d="M2,2 L10,6 L2,10 Z" fill="#356d9b"/></marker></defs><rect x="12" y="12" width="336" height="316" rx="10" fill="#fbfaf7" stroke="#cfc6ba"/><rect x="46" y="42" width="268" height="66" rx="8" fill="#efe8dd" stroke="#d7c9bb"/><text x="180" y="80" text-anchor="middle" class="svg-muted">苏府正厅 / 主轴线</text><path d="M 190 306 L 110 142 L 238 142 Z" fill="#7aa0c4" opacity=".16" stroke="#356d9b" stroke-width="2"/><line x1="190" y1="306" x2="174" y2="184" stroke="#356d9b" stroke-width="4" marker-end="url(#arr)"/><polygon points="172,320 208,320 190,284" fill="#356d9b"/><text x="190" y="344" text-anchor="middle" class="svg-cam">CAM</text><text x="320" y="318" text-anchor="end" class="svg-muted">苏明舒反应 / FOV</text><circle cx="172" cy="185" r="22" fill="#d89b65" stroke="#252525" stroke-width="2"/><text x="172" y="227" text-anchor="middle" class="svg-name">苏明舒</text><circle cx="250" cy="220" r="22" fill="#78a06f" stroke="#252525" stroke-width="2"/><text x="250" y="262" text-anchor="middle" class="svg-name">青枝</text><circle cx="82" cy="132" r="22" fill="#586a83" stroke="#252525" stroke-width="2"/><text x="82" y="174" text-anchor="middle" class="svg-name">谢临舟</text></g>
<text x="520" y="92" class="page-label">导演备注</text>
<text x="520" y="126" class="page-text">中近景 / 苏明舒侧前方，谢临舟在对面</text>
<text x="520" y="158" class="page-text">缓慢推近苏明舒放下茶盏动作</text>
<text x="520" y="198" class="page-label">画面动作</text>
<text x="520" y="232" class="page-text">苏明舒放下茶盏，努力笑得温和，苏明舒（对谢临舟讲</text><text x="520" y="262" class="page-text">话，情绪：试探）：谢大人，我们今日才第一次见。谢</text><text x="520" y="292" class="page-text">临舟平静应声，谢临舟（对苏明舒讲话，情绪：平</text>
</g><g transform="translate(54,552)">
<rect x="0" y="0" width="960" height="386" rx="10" fill="#fffdf8" stroke="#cfc6ba" stroke-width="2"/>
<text x="26" y="42" class="page-title">7-6｜你就求娶｜5秒</text>
<image href="../panels/ep7_panel_7-6.svg" x="26" y="62" width="170" height="302"/>
<g transform="translate(228,54) scale(0.72)"><defs><marker id="arr" markerWidth="12" markerHeight="12" refX="10" refY="6" orient="auto"><path d="M2,2 L10,6 L2,10 Z" fill="#356d9b"/></marker></defs><rect x="12" y="12" width="336" height="316" rx="10" fill="#fbfaf7" stroke="#cfc6ba"/><rect x="46" y="42" width="268" height="66" rx="8" fill="#efe8dd" stroke="#d7c9bb"/><text x="180" y="80" text-anchor="middle" class="svg-muted">苏府正厅 / 主轴线</text><path d="M 190 306 L 110 142 L 238 142 Z" fill="#7aa0c4" opacity=".16" stroke="#356d9b" stroke-width="2"/><line x1="190" y1="306" x2="174" y2="184" stroke="#356d9b" stroke-width="4" marker-end="url(#arr)"/><polygon points="172,320 208,320 190,284" fill="#356d9b"/><text x="190" y="344" text-anchor="middle" class="svg-cam">CAM</text><text x="320" y="318" text-anchor="end" class="svg-muted">苏明舒反应 / FOV</text><circle cx="172" cy="185" r="22" fill="#d89b65" stroke="#252525" stroke-width="2"/><text x="172" y="227" text-anchor="middle" class="svg-name">苏明舒</text><circle cx="250" cy="220" r="22" fill="#78a06f" stroke="#252525" stroke-width="2"/><text x="250" y="262" text-anchor="middle" class="svg-name">青枝</text><circle cx="82" cy="132" r="22" fill="#586a83" stroke="#252525" stroke-width="2"/><text x="82" y="174" text-anchor="middle" class="svg-name">谢临舟</text></g>
<text x="520" y="92" class="page-label">导演备注</text>
<text x="520" y="126" class="page-text">近景 / 苏明舒正面，谢临舟虚化在前景边缘</text>
<text x="520" y="158" class="page-text">轻微推近苏明舒追问表情</text>
<text x="520" y="198" class="page-label">画面动作</text>
<text x="520" y="232" class="page-text">苏明舒继续追问，苏明舒（对谢临舟讲话，情绪：疑问</text><text x="520" y="262" class="page-text">）：你就求娶？谢临舟依旧简短，谢临舟（对苏明舒讲</text><text x="520" y="292" class="page-text">话，情绪：平静）：嗯。</text>
</g><g transform="translate(54,1010)">
<rect x="0" y="0" width="960" height="386" rx="10" fill="#fffdf8" stroke="#cfc6ba" stroke-width="2"/>
<text x="26" y="42" class="page-title">7-7｜金人补刀｜6秒</text>
<image href="../panels/ep7_panel_7-7.svg" x="26" y="62" width="170" height="302"/>
<g transform="translate(228,54) scale(0.72)"><defs><marker id="arr" markerWidth="12" markerHeight="12" refX="10" refY="6" orient="auto"><path d="M2,2 L10,6 L2,10 Z" fill="#356d9b"/></marker></defs><rect x="12" y="12" width="336" height="316" rx="10" fill="#fbfaf7" stroke="#cfc6ba"/><rect x="46" y="42" width="268" height="66" rx="8" fill="#efe8dd" stroke="#d7c9bb"/><text x="180" y="80" text-anchor="middle" class="svg-muted">苏府正厅 / 主轴线</text><path d="M 180 314 L 116 108 L 244 108 Z" fill="#7aa0c4" opacity=".16" stroke="#356d9b" stroke-width="2"/><line x1="180" y1="314" x2="180" y2="150" stroke="#356d9b" stroke-width="4" marker-end="url(#arr)"/><polygon points="162,328 198,328 180,292" fill="#356d9b"/><text x="180" y="352" text-anchor="middle" class="svg-cam">CAM</text><text x="320" y="318" text-anchor="end" class="svg-muted">正厅全轴 / FOV</text><circle cx="182" cy="104" r="22" fill="#586a83" stroke="#252525" stroke-width="2"/><text x="182" y="146" text-anchor="middle" class="svg-name">谢临舟</text><circle cx="254" cy="132" r="22" fill="#8b7a68" stroke="#252525" stroke-width="2"/><text x="254" y="174" text-anchor="middle" class="svg-name">石墩</text><circle cx="88" cy="164" r="22" fill="#8b6d50" stroke="#252525" stroke-width="2"/><text x="88" y="206" text-anchor="middle" class="svg-name">苏闻璟</text><circle cx="82" cy="226" r="22" fill="#b98a8e" stroke="#252525" stroke-width="2"/><text x="82" y="268" text-anchor="middle" class="svg-name">苏夫人</text><circle cx="228" cy="236" r="22" fill="#d89b65" stroke="#252525" stroke-width="2"/><text x="228" y="278" text-anchor="middle" class="svg-name">苏明舒</text><circle cx="286" cy="260" r="22" fill="#78a06f" stroke="#252525" stroke-width="2"/><text x="286" y="302" text-anchor="middle" class="svg-name">青枝</text></g>
<text x="520" y="92" class="page-label">导演备注</text>
<text x="520" y="126" class="page-text">双人中近景 / 苏明舒与谢临舟正侧面对峙同框</text>
<text x="520" y="158" class="page-text">固定镜头，靠台词包袱完成节奏</text>
<text x="520" y="198" class="page-label">画面动作</text>
<text x="520" y="232" class="page-text">苏明舒努力保持温柔，苏明舒（对谢临舟讲话，情绪：</text><text x="520" y="262" class="page-text">迟疑）：这是不是有些突然？谢临舟不紧不慢，谢临舟</text><text x="520" y="292" class="page-text">（对苏明舒讲话，情绪：冷淡）：比你把顾灵薇喷</text>
</g><g transform="translate(54,1468)">
<rect x="0" y="0" width="960" height="386" rx="10" fill="#fffdf8" stroke="#cfc6ba" stroke-width="2"/>
<text x="26" y="42" class="page-title">7-8｜父亲审问｜5秒</text>
<image href="../panels/ep7_panel_7-8.svg" x="26" y="62" width="170" height="302"/>
<g transform="translate(228,54) scale(0.72)"><defs><marker id="arr" markerWidth="12" markerHeight="12" refX="10" refY="6" orient="auto"><path d="M2,2 L10,6 L2,10 Z" fill="#356d9b"/></marker></defs><rect x="12" y="12" width="336" height="316" rx="10" fill="#fbfaf7" stroke="#cfc6ba"/><rect x="46" y="42" width="268" height="66" rx="8" fill="#efe8dd" stroke="#d7c9bb"/><text x="180" y="80" text-anchor="middle" class="svg-muted">苏府正厅 / 主轴线</text><path d="M 118 306 L 68 118 L 196 118 Z" fill="#7aa0c4" opacity=".16" stroke="#356d9b" stroke-width="2"/><line x1="118" y1="306" x2="132" y2="160" stroke="#356d9b" stroke-width="4" marker-end="url(#arr)"/><polygon points="100,320 136,320 118,284" fill="#356d9b"/><text x="118" y="344" text-anchor="middle" class="svg-cam">CAM</text><text x="320" y="318" text-anchor="end" class="svg-muted">长辈侧 / FOV</text><circle cx="126" cy="158" r="22" fill="#8b6d50" stroke="#252525" stroke-width="2"/><text x="126" y="200" text-anchor="middle" class="svg-name">苏闻璟</text><circle cx="86" cy="220" r="22" fill="#b98a8e" stroke="#252525" stroke-width="2"/><text x="86" y="262" text-anchor="middle" class="svg-name">苏夫人</text><circle cx="238" cy="122" r="22" fill="#586a83" stroke="#252525" stroke-width="2"/><text x="238" y="164" text-anchor="middle" class="svg-name">谢临舟</text><rect x="222" y="162" width="26" height="20" rx="4" fill="#d9c79a" stroke="#252525" stroke-width="2"/><text x="235" y="204" text-anchor="middle" class="svg-name">礼单</text></g>
<text x="520" y="92" class="page-label">导演备注</text>
<text x="520" y="126" class="page-text">近景 / 苏闻璟正面，谢临舟在对面虚化</text>
<text x="520" y="158" class="page-text">缓慢推近苏闻璟沉稳表情</text>
<text x="520" y="198" class="page-label">画面动作</text>
<text x="520" y="232" class="page-text">苏闻璟看向谢临舟，声音沉稳，苏闻璟（对谢临舟讲话</text><text x="520" y="262" class="page-text">，情绪：审视）：老夫想问一句，你求的是苏家嫡女，</text><text x="520" y="292" class="page-text">还是我女儿苏明舒？</text>
</g>
</svg>