<svg xmlns="http://www.w3.org/2000/svg" viewBox="0 0 1080 1920" role="img">
<defs><marker id="arr" markerWidth="12" markerHeight="12" refX="10" refY="6" orient="auto"><path d="M2,2 L10,6 L2,10 Z" fill="#356d9b"/></marker>
<style>.page-title{font:800 26px "Microsoft YaHei","Noto Sans SC",Arial,sans-serif;fill:#1f1f1f}.page-label{font:800 21px "Microsoft YaHei","Noto Sans SC",Arial,sans-serif;fill:#8a6538}.page-text{font:600 20px "Microsoft YaHei","Noto Sans SC",Arial,sans-serif;fill:#2b2b2b}.svg-name{font:700 14px "Microsoft YaHei","Noto Sans SC",Arial,sans-serif;fill:#222}.svg-muted{font:700 13px "Microsoft YaHei","Noto Sans SC",Arial,sans-serif;fill:#6d655d}.svg-cam{font:900 15px "Microsoft YaHei","Noto Sans SC",Arial,sans-serif;fill:#356d9b}</style></defs>
<rect width="1080" height="1920" fill="#f3eee6"/>
<text x="54" y="54" class="page-title">第7集导演分镜页 1 / 8</text>
<g transform="translate(54,94)">
<rect x="0" y="0" width="960" height="386" rx="10" fill="#fffdf8" stroke="#cfc6ba" stroke-width="2"/>
<text x="26" y="42" class="page-title">7-1｜求娶你｜5秒</text>
<image href="../panels/ep7_panel_7-1.svg" x="26" y="62" width="170" height="302"/>
<g transform="translate(228,54) scale(0.72)"><defs><marker id="arr" markerWidth="12" markerHeight="12" refX="10" refY="6" orient="auto"><path d="M2,2 L10,6 L2,10 Z" fill="#356d9b"/></marker></defs><rect x="12" y="12" width="336" height="316" rx="10" fill="#fbfaf7" stroke="#cfc6ba"/><rect x="46" y="42" width="268" height="66" rx="8" fill="#efe8dd" stroke="#d7c9bb"/><text x="180" y="80" text-anchor="middle" class="svg-muted">苏府正厅 / 主轴线</text><path d="M 180 314 L 116 108 L 244 108 Z" fill="#7aa0c4" opacity=".16" stroke="#356d9b" stroke-width="2"/><line x1="180" y1="314" x2="180" y2="150" stroke="#356d9b" stroke-width="4" marker-end="url(#arr)"/><polygon points="162,328 198,328 180,292" fill="#356d9b"/><text x="180" y="352" text-anchor="middle" class="svg-cam">CAM</text><text x="320" y="318" text-anchor="end" class="svg-muted">正厅全轴 / FOV</text><circle cx="182" cy="104" r="22" fill="#586a83" stroke="#252525" stroke-width="2"/><text x="182" y="146" text-anchor="middle" class="svg-name">谢临舟</text><circle cx="254" cy="132" r="22" fill="#8b7a68" stroke="#252525" stroke-width="2"/><text x="254" y="174" text-anchor="middle" class="svg-name">石墩</text><circle cx="88" cy="164" r="22" fill="#8b6d50" stroke="#252525" stroke-width="2"/><text x="88" y="206" text-anchor="middle" class="svg-name">苏闻璟</text><circle cx="82" cy="226" r="22" fill="#b98a8e" stroke="#252525" stroke-width="2"/><text x="82" y="268" text-anchor="middle" class="svg-name">苏夫人</text><circle cx="228" cy="236" r="22" fill="#d89b65" stroke="#252525" stroke-width="2"/><text x="228" y="278" text-anchor="middle" class="svg-name">苏明舒</text><circle cx="286" cy="260" r="22" fill="#78a06f" stroke="#252525" stroke-width="2"/><text x="286" y="302" text-anchor="middle" class="svg-name">青枝</text></g>
<text x="520" y="92" class="page-label">导演备注</text>
<text x="520" y="126" class="page-text">全景 / 苏府正厅正面，谢临舟站在厅中央，苏明舒在侧位，苏闻璟与苏</text>
<text x="520" y="158" class="page-text">稳定器缓慢推进</text>
<text x="520" y="198" class="page-label">画面动作</text>
<text x="520" y="232" class="page-text">正厅里还残留上一刻“求娶苏大小姐”的震惊，谢临舟</text><text x="520" y="262" class="page-text">抬眼看向苏明舒，谢临舟（对苏明舒讲话，情绪：平静</text><text x="520" y="292" class="page-text">）：求娶你。</text>
</g><g transform="translate(54,552)">
<rect x="0" y="0" width="960" height="386" rx="10" fill="#fffdf8" stroke="#cfc6ba" stroke-width="2"/>
<text x="26" y="42" class="page-title">7-2｜我？｜4秒</text>
<image href="../panels/ep7_panel_7-2.svg" x="26" y="62" width="170" height="302"/>
<g transform="translate(228,54) scale(0.72)"><defs><marker id="arr" markerWidth="12" markerHeight="12" refX="10" refY="6" orient="auto"><path d="M2,2 L10,6 L2,10 Z" fill="#356d9b"/></marker></defs><rect x="12" y="12" width="336" height="316" rx="10" fill="#fbfaf7" stroke="#cfc6ba"/><rect x="46" y="42" width="268" height="66" rx="8" fill="#efe8dd" stroke="#d7c9bb"/><text x="180" y="80" text-anchor="middle" class="svg-muted">苏府正厅 / 主轴线</text><path d="M 190 306 L 110 142 L 238 142 Z" fill="#7aa0c4" opacity=".16" stroke="#356d9b" stroke-width="2"/><line x1="190" y1="306" x2="174" y2="184" stroke="#356d9b" stroke-width="4" marker-end="url(#arr)"/><polygon points="172,320 208,320 190,284" fill="#356d9b"/><text x="190" y="344" text-anchor="middle" class="svg-cam">CAM</text><text x="320" y="318" text-anchor="end" class="svg-muted">苏明舒反应 / FOV</text><circle cx="172" cy="185" r="22" fill="#d89b65" stroke="#252525" stroke-width="2"/><text x="172" y="227" text-anchor="middle" class="svg-name">苏明舒</text><circle cx="250" cy="220" r="22" fill="#78a06f" stroke="#252525" stroke-width="2"/><text x="250" y="262" text-anchor="middle" class="svg-name">青枝</text><circle cx="82" cy="132" r="22" fill="#586a83" stroke="#252525" stroke-width="2"/><text x="82" y="174" text-anchor="middle" class="svg-name">谢临舟</text></g>
<text x="520" y="92" class="page-label">导演备注</text>
<text x="520" y="126" class="page-text">近景 / 苏明舒正面，手指指向自己</text>
<text x="520" y="158" class="page-text">轻微推近苏明舒震惊反应</text>
<text x="520" y="198" class="page-label">画面动作</text>
<text x="520" y="232" class="page-text">苏明舒指着自己，满脸不可置信，苏明舒（对谢临舟讲</text><text x="520" y="262" class="page-text">话，情绪：震惊）：我？</text>
</g><g transform="translate(54,1010)">
<rect x="0" y="0" width="960" height="386" rx="10" fill="#fffdf8" stroke="#cfc6ba" stroke-width="2"/>
<text x="26" y="42" class="page-title">7-3｜机关锦盒｜5秒</text>
<image href="../panels/ep7_panel_7-3.svg" x="26" y="62" width="170" height="302"/>
<g transform="translate(228,54) scale(0.72)"><defs><marker id="arr" markerWidth="12" markerHeight="12" refX="10" refY="6" orient="auto"><path d="M2,2 L10,6 L2,10 Z" fill="#356d9b"/></marker></defs><rect x="12" y="12" width="336" height="316" rx="10" fill="#fbfaf7" stroke="#cfc6ba"/><rect x="46" y="42" width="268" height="66" rx="8" fill="#efe8dd" stroke="#d7c9bb"/><text x="180" y="80" text-anchor="middle" class="svg-muted">苏府正厅 / 主轴线</text><path d="M 184 306 L 114 90 L 242 90 Z" fill="#7aa0c4" opacity=".16" stroke="#356d9b" stroke-width="2"/><line x1="184" y1="306" x2="178" y2="132" stroke="#356d9b" stroke-width="4" marker-end="url(#arr)"/><polygon points="166,320 202,320 184,284" fill="#356d9b"/><text x="184" y="344" text-anchor="middle" class="svg-cam">CAM</text><text x="320" y="318" text-anchor="end" class="svg-muted">谢临舟正面 / FOV</text><circle cx="176" cy="130" r="22" fill="#586a83" stroke="#252525" stroke-width="2"/><text x="176" y="172" text-anchor="middle" class="svg-name">谢临舟</text><circle cx="246" cy="155" r="22" fill="#8b7a68" stroke="#252525" stroke-width="2"/><text x="246" y="197" text-anchor="middle" class="svg-name">石墩</text><circle cx="95" cy="205" r="22" fill="#d89b65" stroke="#252525" stroke-width="2"/><text x="95" y="247" text-anchor="middle" class="svg-name">苏明舒</text></g>
<text x="520" y="92" class="page-label">导演备注</text>
<text x="520" y="126" class="page-text">近景 / 谢临舟正面，苏明舒肩部虚化在前景</text>
<text x="520" y="158" class="page-text">极慢推近谢临舟冷淡表情</text>
<text x="520" y="198" class="page-label">画面动作</text>
<text x="520" y="232" class="page-text">谢临舟神色不变，谢临舟（对苏明舒讲话，情绪：冷淡</text><text x="520" y="262" class="page-text">）：不然呢？苏府还有第二个会把机关藏进锦盒里的小</text><text x="520" y="292" class="page-text">姐？</text>
</g><g transform="translate(54,1468)">
<rect x="0" y="0" width="960" height="386" rx="10" fill="#fffdf8" stroke="#cfc6ba" stroke-width="2"/>
<text x="26" y="42" class="page-title">7-4｜青枝憋笑｜4秒</text>
<image href="../panels/ep7_panel_7-4.svg" x="26" y="62" width="170" height="302"/>
<g transform="translate(228,54) scale(0.72)"><defs><marker id="arr" markerWidth="12" markerHeight="12" refX="10" refY="6" orient="auto"><path d="M2,2 L10,6 L2,10 Z" fill="#356d9b"/></marker></defs><rect x="12" y="12" width="336" height="316" rx="10" fill="#fbfaf7" stroke="#cfc6ba"/><rect x="46" y="42" width="268" height="66" rx="8" fill="#efe8dd" stroke="#d7c9bb"/><text x="180" y="80" text-anchor="middle" class="svg-muted">苏府正厅 / 主轴线</text><path d="M 180 314 L 116 108 L 244 108 Z" fill="#7aa0c4" opacity=".16" stroke="#356d9b" stroke-width="2"/><line x1="180" y1="314" x2="180" y2="150" stroke="#356d9b" stroke-width="4" marker-end="url(#arr)"/><polygon points="162,328 198,328 180,292" fill="#356d9b"/><text x="180" y="352" text-anchor="middle" class="svg-cam">CAM</text><text x="320" y="318" text-anchor="end" class="svg-muted">正厅全轴 / FOV</text><circle cx="182" cy="104" r="22" fill="#586a83" stroke="#252525" stroke-width="2"/><text x="182" y="146" text-anchor="middle" class="svg-name">谢临舟</text><circle cx="254" cy="132" r="22" fill="#8b7a68" stroke="#252525" stroke-width="2"/><text x="254" y="174" text-anchor="middle" class="svg-name">石墩</text><circle cx="88" cy="164" r="22" fill="#8b6d50" stroke="#252525" stroke-width="2"/><text x="88" y="206" text-anchor="middle" class="svg-name">苏闻璟</text><circle cx="82" cy="226" r="22" fill="#b98a8e" stroke="#252525" stroke-width="2"/><text x="82" y="268" text-anchor="middle" class="svg-name">苏夫人</text><circle cx="228" cy="236" r="22" fill="#d89b65" stroke="#252525" stroke-width="2"/><text x="228" y="278" text-anchor="middle" class="svg-name">苏明舒</text><circle cx="286" cy="260" r="22" fill="#78a06f" stroke="#252525" stroke-width="2"/><text x="286" y="302" text-anchor="middle" class="svg-name">青枝</text></g>
<text x="520" y="92" class="page-label">导演备注</text>
<text x="520" y="126" class="page-text">中近景 / 青枝侧前方，苏明舒在前景侧边</text>
<text x="520" y="158" class="page-text">轻微横移带到青枝反应</text>
<text x="520" y="198" class="page-label">画面动作</text>
<text x="520" y="232" class="page-text">青枝差点笑出声，嘴角刚翘起来又赶紧压下去，苏明舒</text><text x="520" y="262" class="page-text">的眼神轻轻扫过来。</text>
</g>
</svg>