<svg xmlns="http://www.w3.org/2000/svg" viewBox="0 0 360 640" role="img" aria-label="7-4">
<defs>
<marker id="arrow-red" markerWidth="12" markerHeight="12" refX="10" refY="6" orient="auto"><path d="M2,2 L10,6 L2,10 Z" fill="#a75858"/></marker>
<style>
.title{font:700 20px "Microsoft YaHei","Noto Sans SC",Arial,sans-serif;fill:#1f1f1f}
.sub{font:600 13px "Microsoft YaHei","Noto Sans SC",Arial,sans-serif;fill:#5f564d}
.label{font:700 13px "Microsoft YaHei","Noto Sans SC",Arial,sans-serif;fill:#222}
</style>
</defs>
<rect width="360" height="640" fill="#fbfaf7"/>
<rect x="16" y="16" width="328" height="608" rx="14" fill="#fffdf8" stroke="#cfc6ba" stroke-width="2"/>
<text x="28" y="48" class="title">7-4｜青枝憋笑</text>
<text x="28" y="72" class="sub">中近景｜轻微横移带到青枝反应｜4秒</text>
<rect x="28" y="92" width="304" height="462" rx="8" fill="#f0e7da" stroke="#252525" stroke-width="3"/><path d="M58 154 H302 M66 220 H294 M74 286 H286" stroke="#b9b0a4" stroke-width="2" opacity=".85"/><rect x="78" y="398" width="210" height="58" rx="24" fill="#d7c4a6" stroke="#7b6042" stroke-width="3"/><path d="M68 100 L46 554 M292 100 L314 554" stroke="#8a7d70" stroke-width="4" opacity=".75"/><g opacity="1"><circle cx="180" cy="330" r="18.0" fill="#f3dfc8" stroke="#252525" stroke-width="2"/><path d="M159.0,348.0 L201.0,348.0 L208.6,422.0 L151.4,422.0 Z" fill="#78a06f" stroke="#252525" stroke-width="2"/><line x1="162.4" y1="372.0" x2="142.2" y2="406.0" stroke="#252525" stroke-width="2"/><line x1="197.6" y1="372.0" x2="217.8" y2="406.0" stroke="#252525" stroke-width="2"/><text x="180" y="408.0" text-anchor="middle" class="label">青枝</text></g><g opacity="0.42"><circle cx="82" cy="380" r="14.4" fill="#f3dfc8" stroke="#252525" stroke-width="2"/><path d="M65.2,394.4 L98.8,394.4 L104.8,453.6 L59.2,453.6 Z" fill="#d89b65" stroke="#252525" stroke-width="2"/><line x1="67.9" y1="413.6" x2="51.8" y2="440.8" stroke="#252525" stroke-width="2"/><line x1="96.1" y1="413.6" x2="112.2" y2="440.8" stroke="#252525" stroke-width="2"/><text x="82" y="442.4" text-anchor="middle" class="label">苏明舒</text></g>
</svg>