<svg xmlns="http://www.w3.org/2000/svg" viewBox="0 0 360 640" role="img" aria-label="6-12 青枝八卦">
<defs>
<marker id="arrow-red" markerWidth="12" markerHeight="12" refX="10" refY="6" orient="auto"><path d="M2,2 L10,6 L2,10 Z" fill="#a75858"/></marker>
<style>
.title{font:700 20px "Microsoft YaHei","Noto Sans SC",Arial,sans-serif;fill:#1f1f1f}
.sub{font:600 13px "Microsoft YaHei","Noto Sans SC",Arial,sans-serif;fill:#5f564d}
.label{font:700 13px "Microsoft YaHei","Noto Sans SC",Arial,sans-serif;fill:#222}
.note{font:800 20px "Microsoft YaHei","Noto Sans SC",Arial,sans-serif;fill:#1f1f1f}
.tiny{font:600 12px "Microsoft YaHei","Noto Sans SC",Arial,sans-serif;fill:#5f564d}
</style>
</defs>
<rect width="360" height="640" fill="#fbfaf7"/>
<rect x="16" y="16" width="328" height="608" rx="14" fill="#fffdf8" stroke="#cfc6ba" stroke-width="2"/>
<text x="28" y="48" class="title">6-12｜青枝八卦</text>
<text x="28" y="72" class="sub">中近景｜轻微推近青枝试探表情｜5秒</text>
<rect x="28" y="92" width="304" height="462" rx="8" fill="#f0ece2" stroke="#252525" stroke-width="3"/><path d="M58 154 H302 M66 220 H294 M74 286 H286" stroke="#b9b0a4" stroke-width="2" opacity=".85"/><rect x="82" y="388" width="190" height="58" rx="24" fill="#d7c4a6" stroke="#7b6042" stroke-width="3"/><path d="M68 100 L46 554 M292 100 L314 554" stroke="#8a7d70" stroke-width="4" opacity=".75"/><g opacity="1"><circle cx="155" cy="360" r="18.0" fill="#f3dfc8" stroke="#252525" stroke-width="2"/><path d="M134.0,378.0 L176.0,378.0 L183.6,452.0 L126.4,452.0 Z" fill="#d89b65" stroke="#252525" stroke-width="2"/><line x1="137.4" y1="402.0" x2="117.2" y2="436.0" stroke="#252525" stroke-width="2"/><line x1="172.6" y1="402.0" x2="192.8" y2="436.0" stroke="#252525" stroke-width="2"/><text x="155" y="438.0" text-anchor="middle" class="label">苏明舒</text></g><g opacity="0.42"><circle cx="248" cy="390" r="14.4" fill="#f3dfc8" stroke="#252525" stroke-width="2"/><path d="M231.2,404.4 L264.8,404.4 L270.8,463.6 L225.2,463.6 Z" fill="#78a06f" stroke="#252525" stroke-width="2"/><line x1="233.9" y1="423.6" x2="217.8" y2="450.8" stroke="#252525" stroke-width="2"/><line x1="262.1" y1="423.6" x2="278.2" y2="450.8" stroke="#252525" stroke-width="2"/><text x="248" y="452.4" text-anchor="middle" class="label">青枝</text></g>
</svg>