<svg xmlns="http://www.w3.org/2000/svg" viewBox="0 0 360 640" role="img" aria-label="6-1 顾府夜议">
<defs>
<marker id="arrow-red" markerWidth="12" markerHeight="12" refX="10" refY="6" orient="auto"><path d="M2,2 L10,6 L2,10 Z" fill="#a75858"/></marker>
<style>
.title{font:700 20px "Microsoft YaHei","Noto Sans SC",Arial,sans-serif;fill:#1f1f1f}
.sub{font:600 13px "Microsoft YaHei","Noto Sans SC",Arial,sans-serif;fill:#5f564d}
.label{font:700 13px "Microsoft YaHei","Noto Sans SC",Arial,sans-serif;fill:#222}
.note{font:800 20px "Microsoft YaHei","Noto Sans SC",Arial,sans-serif;fill:#1f1f1f}
.tiny{font:600 12px "Microsoft YaHei","Noto Sans SC",Arial,sans-serif;fill:#5f564d}
</style>
</defs>
<rect width="360" height="640" fill="#fbfaf7"/>
<rect x="16" y="16" width="328" height="608" rx="14" fill="#fffdf8" stroke="#cfc6ba" stroke-width="2"/>
<text x="28" y="48" class="title">6-1｜顾府夜议</text>
<text x="28" y="72" class="sub">全景｜稳定器缓慢推进｜5秒</text>
<rect x="28" y="92" width="304" height="462" rx="8" fill="#2f2b28" stroke="#252525" stroke-width="3"/><rect x="74" y="146" width="212" height="62" rx="4" fill="#6d5038" stroke="#1f1f1f" stroke-width="3"/><path d="M58 116 H302 M64 504 H296" stroke="#9a7a54" stroke-width="3" opacity=".65"/><circle cx="260" cy="158" r="12" fill="#d9a24e" opacity=".8"/><g opacity="1"><circle cx="180" cy="258" r="18.0" fill="#f3dfc8" stroke="#252525" stroke-width="2"/><path d="M159.0,276.0 L201.0,276.0 L208.6,350.0 L151.4,350.0 Z" fill="#6d5b4a" stroke="#252525" stroke-width="2"/><line x1="162.4" y1="300.0" x2="142.2" y2="334.0" stroke="#252525" stroke-width="2"/><line x1="197.6" y1="300.0" x2="217.8" y2="334.0" stroke="#252525" stroke-width="2"/><text x="180" y="336.0" text-anchor="middle" class="label">顾仲山</text></g><g opacity="1"><circle cx="92" cy="384" r="18.0" fill="#f3dfc8" stroke="#252525" stroke-width="2"/><path d="M71.0,402.0 L113.0,402.0 L120.6,476.0 L63.4,476.0 Z" fill="#c9a24a" stroke="#252525" stroke-width="2"/><line x1="74.4" y1="426.0" x2="54.2" y2="460.0" stroke="#252525" stroke-width="2"/><line x1="109.6" y1="426.0" x2="129.8" y2="460.0" stroke="#252525" stroke-width="2"/><text x="92" y="462.0" text-anchor="middle" class="label">顾灵薇</text></g><g opacity="0.42"><circle cx="270" cy="336" r="14.4" fill="#f3dfc8" stroke="#252525" stroke-width="2"/><path d="M253.2,350.4 L286.8,350.4 L292.8,409.6 L247.2,409.6 Z" fill="#7b7468" stroke="#252525" stroke-width="2"/><line x1="255.9" y1="369.6" x2="239.8" y2="396.8" stroke="#252525" stroke-width="2"/><line x1="284.1" y1="369.6" x2="300.2" y2="396.8" stroke="#252525" stroke-width="2"/><text x="270" y="398.4" text-anchor="middle" class="label">顾管家</text></g>
</svg>