<svg xmlns="http://www.w3.org/2000/svg" width="2160" height="3840" viewBox="0 0 2160 3840">
<defs>
<marker id="arrow" markerWidth="12" markerHeight="12" refX="10" refY="6" orient="auto" markerUnits="strokeWidth"><path d="M2,2 L10,6 L2,10 Z" fill="#202020"/></marker>
</defs>
<rect x="0" y="0" width="2160" height="3840" rx="0" fill="#fbf7ef" stroke="#fbf7ef" stroke-width="0"/>
<text x="70" y="70" font-family="Microsoft YaHei, SimHei, Arial" font-size="54" font-weight="900" fill="#202020" text-anchor="start">第2集 镜头首帧图册 P1｜御花园入口 V1</text>
<text x="2090" y="70" font-family="Microsoft YaHei, SimHei, Arial" font-size="30" font-weight="600" fill="#666666" text-anchor="end">4K 9:16｜SVG真实文字｜含CAM/FOV机位图</text>
<line x1="70" y1="98" x2="2090" y2="98" stroke="#d0c4b6" stroke-width="3" stroke-linecap="round"/>
<rect x="70" y="205" width="2020" height="695.4" rx="22" fill="#fffaf2" stroke="#1f1f1f" stroke-width="4"/><text x="96" y="248" font-family="Microsoft YaHei, SimHei, Arial" font-size="32" font-weight="800" fill="#202020" text-anchor="start">2-1-1｜00:00-00:02｜全景/正面/24mm/轻推</text><text x="2064" y="248" font-family="Microsoft YaHei, SimHei, Arial" font-size="34" font-weight="800" fill="#7a4c20" text-anchor="end">御花园入口公开场</text><rect x="96" y="267" width="1050" height="518.4" rx="14" fill="#fffdf8" stroke="#262626" stroke-width="3"/><line x1="131" y1="715.4" x2="1111" y2="715.4" stroke="#9a9a9a" stroke-width="3" stroke-linecap="round"/><rect x="151" y="307" width="940" height="80" rx="10" fill="#f1ece3" stroke="#555" stroke-width="3"/><text x="621.0" y="359" font-family="Microsoft YaHei, SimHei, Arial" font-size="30" font-weight="600" fill="#666666" text-anchor="middle">御花园 / 主台空间</text><circle cx="358.5" cy="433.808" r="18" fill="#fff" stroke="#2d2d2d" stroke-width="3"/><line x1="358.5" y1="451.808" x2="358.5" y2="500.808" stroke="#2d2d2d" stroke-width="4" stroke-linecap="round"/><line x1="330.5" y1="470.808" x2="386.5" y2="470.808" stroke="#2d2d2d" stroke-width="4" stroke-linecap="round"/><line x1="358.5" y1="500.808" x2="336.5" y2="536.808" stroke="#2d2d2d" stroke-width="4" stroke-linecap="round"/><line x1="358.5" y1="500.808" x2="380.5" y2="536.808" stroke="#2d2d2d" stroke-width="4" stroke-linecap="round"/><text x="358.5" y="570.808" font-family="Microsoft YaHei, SimHei, Arial" font-size="28" font-weight="600" fill="#202020" text-anchor="middle">宫人</text><circle cx="600.0" cy="423.43999999999994" r="18" fill="#f7efe9" stroke="#2d2d2d" stroke-width="3"/><line x1="600.0" y1="441.43999999999994" x2="600.0" y2="490.43999999999994" stroke="#2d2d2d" stroke-width="4" stroke-linecap="round"/><line x1="572.0" y1="460.43999999999994" x2="628.0" y2="460.43999999999994" stroke="#2d2d2d" stroke-width="4" stroke-linecap="round"/><line x1="600.0" y1="490.43999999999994" x2="578.0" y2="526.4399999999999" stroke="#2d2d2d" stroke-width="4" stroke-linecap="round"/><line x1="600.0" y1="490.43999999999994" x2="622.0" y2="526.4399999999999" stroke="#2d2d2d" stroke-width="4" stroke-linecap="round"/><text x="600.0" y="560.4399999999999" font-family="Microsoft YaHei, SimHei, Arial" font-size="28" font-weight="600" fill="#202020" text-anchor="middle">贵女</text><circle cx="831.0" cy="433.808" r="18" fill="#fff" stroke="#2d2d2d" stroke-width="3"/><line x1="831.0" y1="451.808" x2="831.0" y2="500.808" stroke="#2d2d2d" stroke-width="4" stroke-linecap="round"/><line x1="803.0" y1="470.808" x2="859.0" y2="470.808" stroke="#2d2d2d" stroke-width="4" stroke-linecap="round"/><line x1="831.0" y1="500.808" x2="809.0" y2="536.808" stroke="#2d2d2d" stroke-width="4" stroke-linecap="round"/><line x1="831.0" y1="500.808" x2="853.0" y2="536.808" stroke="#2d2d2d" stroke-width="4" stroke-linecap="round"/><text x="831.0" y="570.808" font-family="Microsoft YaHei, SimHei, Arial" font-size="28" font-weight="600" fill="#202020" text-anchor="middle">苏明舒</text><rect x="1172" y="267" width="892" height="518.4" rx="14" fill="#f7f4ed" stroke="#555" stroke-width="3"/><polygon points="1209,744.4 1265,744.4 1237,686.4" fill="#7aa0c4" stroke="#202020" stroke-width="3"/><text x="1237" y="784.4" font-family="Microsoft YaHei, SimHei, Arial" font-size="28" font-weight="800" fill="#7aa0c4" text-anchor="middle">CAM</text><line x1="1257" y1="695.4" x2="1662.6" y2="500.28" stroke="#7aa0c4" stroke-width="4" stroke-linecap="round" marker-end="url(#arrow)"/><path d="M 1277 700.4 L 1546.6399999999999 381.048 L 1867.76 526.2 Z" fill="#7aa0c4" opacity="0.10" stroke="#7aa0c4" stroke-width="2"/><text x="1994" y="309" font-family="Microsoft YaHei, SimHei, Arial" font-size="26" font-weight="600" fill="#7aa0c4" text-anchor="end">镜头方向 / FOV</text><circle cx="1510.96" cy="448.43999999999994" r="30" fill="#fff" stroke="#2d2d2d" stroke-width="3"/><text x="1510.96" y="512.4399999999999" font-family="Microsoft YaHei, SimHei, Arial" font-size="26" font-weight="700" fill="#202020" text-anchor="middle">宫人</text><circle cx="1725.04" cy="443.256" r="30" fill="#f5f0ff" stroke="#2d2d2d" stroke-width="3"/><text x="1725.04" y="507.256" font-family="Microsoft YaHei, SimHei, Arial" font-size="26" font-weight="700" fill="#202020" text-anchor="middle">贵女</text><circle cx="1618.0" cy="588.4079999999999" r="30" fill="#fff7dc" stroke="#2d2d2d" stroke-width="3"/><text x="1618.0" y="652.4079999999999" font-family="Microsoft YaHei, SimHei, Arial" font-size="26" font-weight="700" fill="#202020" text-anchor="middle">苏明舒</text><text x="96" y="812.4" font-family="Microsoft YaHei, SimHei, Arial" font-size="29" font-weight="500" fill="#202020" text-anchor="start">画面：宫人居中，贵女分列，苏明舒在右侧边缘</text><text x="96" y="854.4" font-family="Microsoft YaHei, SimHei, Arial" font-size="29" font-weight="700" fill="#666666" text-anchor="start">备注：全景建立公开场；1-2秒；禁对白字幕</text>
<rect x="70" y="922.4" width="2020" height="695.4" rx="22" fill="#fffaf2" stroke="#1f1f1f" stroke-width="4"/><text x="96" y="965.4" font-family="Microsoft YaHei, SimHei, Arial" font-size="32" font-weight="800" fill="#202020" text-anchor="start">2-1-2｜00:02-00:06｜中近景/正面/50mm/固定</text><text x="2064" y="965.4" font-family="Microsoft YaHei, SimHei, Arial" font-size="34" font-weight="800" fill="#7a4c20" text-anchor="end">宫人宣告</text><rect x="96" y="984.4" width="1050" height="518.4" rx="14" fill="#fffdf8" stroke="#262626" stroke-width="3"/><line x1="131" y1="1432.8" x2="1111" y2="1432.8" stroke="#9a9a9a" stroke-width="3" stroke-linecap="round"/><rect x="600.0" y="1253.9679999999998" width="120" height="70" rx="14" fill="#fff4c7" stroke="#d8a83f" stroke-width="5"/><text x="660.0" y="1298.9679999999998" font-family="Microsoft YaHei, SimHei, Arial" font-size="32" font-weight="700" fill="#d8a83f" text-anchor="middle">匣</text><circle cx="358.5" cy="1151.208" r="18" fill="#fff" stroke="#2d2d2d" stroke-width="3"/><line x1="358.5" y1="1169.208" x2="358.5" y2="1218.208" stroke="#2d2d2d" stroke-width="4" stroke-linecap="round"/><line x1="330.5" y1="1188.208" x2="386.5" y2="1188.208" stroke="#2d2d2d" stroke-width="4" stroke-linecap="round"/><line x1="358.5" y1="1218.208" x2="336.5" y2="1254.208" stroke="#2d2d2d" stroke-width="4" stroke-linecap="round"/><line x1="358.5" y1="1218.208" x2="380.5" y2="1254.208" stroke="#2d2d2d" stroke-width="4" stroke-linecap="round"/><text x="358.5" y="1288.208" font-family="Microsoft YaHei, SimHei, Arial" font-size="28" font-weight="600" fill="#202020" text-anchor="middle">宫人</text><circle cx="600.0" cy="1140.84" r="18" fill="#f7efe9" stroke="#2d2d2d" stroke-width="3"/><line x1="600.0" y1="1158.84" x2="600.0" y2="1207.84" stroke="#2d2d2d" stroke-width="4" stroke-linecap="round"/><line x1="572.0" y1="1177.84" x2="628.0" y2="1177.84" stroke="#2d2d2d" stroke-width="4" stroke-linecap="round"/><line x1="600.0" y1="1207.84" x2="578.0" y2="1243.84" stroke="#2d2d2d" stroke-width="4" stroke-linecap="round"/><line x1="600.0" y1="1207.84" x2="622.0" y2="1243.84" stroke="#2d2d2d" stroke-width="4" stroke-linecap="round"/><text x="600.0" y="1277.84" font-family="Microsoft YaHei, SimHei, Arial" font-size="28" font-weight="600" fill="#202020" text-anchor="middle">抬匣宫人</text><rect x="1172" y="984.4" width="892" height="518.4" rx="14" fill="#f7f4ed" stroke="#555" stroke-width="3"/><polygon points="1209,1461.8 1265,1461.8 1237,1403.8" fill="#7aa0c4" stroke="#202020" stroke-width="3"/><text x="1237" y="1501.8" font-family="Microsoft YaHei, SimHei, Arial" font-size="28" font-weight="800" fill="#7aa0c4" text-anchor="middle">CAM</text><line x1="1257" y1="1412.8" x2="1662.6" y2="1217.68" stroke="#7aa0c4" stroke-width="4" stroke-linecap="round" marker-end="url(#arrow)"/><path d="M 1277 1417.8 L 1546.6399999999999 1098.4479999999999 L 1867.76 1243.6 Z" fill="#7aa0c4" opacity="0.10" stroke="#7aa0c4" stroke-width="2"/><text x="1994" y="1026.4" font-family="Microsoft YaHei, SimHei, Arial" font-size="26" font-weight="600" fill="#7aa0c4" text-anchor="end">镜头方向 / FOV</text><circle cx="1510.96" cy="1165.84" r="30" fill="#fff" stroke="#2d2d2d" stroke-width="3"/><text x="1510.96" y="1229.84" font-family="Microsoft YaHei, SimHei, Arial" font-size="26" font-weight="700" fill="#202020" text-anchor="middle">宫人</text><circle cx="1725.04" cy="1160.656" r="30" fill="#f5f0ff" stroke="#2d2d2d" stroke-width="3"/><text x="1725.04" y="1224.656" font-family="Microsoft YaHei, SimHei, Arial" font-size="26" font-weight="700" fill="#202020" text-anchor="middle">抬匣宫人</text><text x="96" y="1529.8" font-family="Microsoft YaHei, SimHei, Arial" font-size="29" font-weight="500" fill="#202020" text-anchor="start">画面：后方宫人抬盖布天机匣入场</text><text x="96" y="1571.8" font-family="Microsoft YaHei, SimHei, Arial" font-size="29" font-weight="700" fill="#666666" text-anchor="start">备注：宫人宣告；后方抬匣入场</text>
<rect x="70" y="1639.8" width="2020" height="695.4" rx="22" fill="#fffaf2" stroke="#1f1f1f" stroke-width="4"/><text x="96" y="1682.8" font-family="Microsoft YaHei, SimHei, Arial" font-size="32" font-weight="800" fill="#202020" text-anchor="start">2-1-3｜00:06-00:09｜特写/侧前/100mm/慢推</text><text x="2064" y="1682.8" font-family="Microsoft YaHei, SimHei, Arial" font-size="34" font-weight="800" fill="#7a4c20" text-anchor="end">天机匣亮相</text><rect x="96" y="1701.8" width="1050" height="518.4" rx="14" fill="#fffdf8" stroke="#262626" stroke-width="3"/><line x1="131" y1="2150.2" x2="1111" y2="2150.2" stroke="#9a9a9a" stroke-width="3" stroke-linecap="round"/><rect x="600.0" y="1971.368" width="120" height="70" rx="14" fill="#fff4c7" stroke="#d8a83f" stroke-width="5"/><text x="660.0" y="2016.368" font-family="Microsoft YaHei, SimHei, Arial" font-size="32" font-weight="700" fill="#d8a83f" text-anchor="middle">匣</text><circle cx="358.5" cy="1868.608" r="18" fill="#fff" stroke="#2d2d2d" stroke-width="3"/><line x1="358.5" y1="1886.608" x2="358.5" y2="1935.608" stroke="#2d2d2d" stroke-width="4" stroke-linecap="round"/><line x1="330.5" y1="1905.608" x2="386.5" y2="1905.608" stroke="#2d2d2d" stroke-width="4" stroke-linecap="round"/><line x1="358.5" y1="1935.608" x2="336.5" y2="1971.608" stroke="#2d2d2d" stroke-width="4" stroke-linecap="round"/><line x1="358.5" y1="1935.608" x2="380.5" y2="1971.608" stroke="#2d2d2d" stroke-width="4" stroke-linecap="round"/><text x="358.5" y="2005.608" font-family="Microsoft YaHei, SimHei, Arial" font-size="28" font-weight="600" fill="#202020" text-anchor="middle">天机匣</text><rect x="1172" y="1701.8" width="892" height="518.4" rx="14" fill="#f7f4ed" stroke="#555" stroke-width="3"/><polygon points="1209,2179.2 1265,2179.2 1237,2121.2" fill="#7aa0c4" stroke="#202020" stroke-width="3"/><text x="1237" y="2219.2" font-family="Microsoft YaHei, SimHei, Arial" font-size="28" font-weight="800" fill="#7aa0c4" text-anchor="middle">CAM</text><line x1="1257" y1="2130.2" x2="1662.6" y2="1935.08" stroke="#7aa0c4" stroke-width="4" stroke-linecap="round" marker-end="url(#arrow)"/><path d="M 1277 2135.2 L 1546.6399999999999 1815.848 L 1867.76 1961.0 Z" fill="#7aa0c4" opacity="0.10" stroke="#7aa0c4" stroke-width="2"/><text x="1994" y="1743.8" font-family="Microsoft YaHei, SimHei, Arial" font-size="26" font-weight="600" fill="#7aa0c4" text-anchor="end">镜头方向 / FOV</text><circle cx="1510.96" cy="1883.24" r="30" fill="#fff" stroke="#2d2d2d" stroke-width="3"/><text x="1510.96" y="1947.24" font-family="Microsoft YaHei, SimHei, Arial" font-size="26" font-weight="700" fill="#202020" text-anchor="middle">天机匣</text><rect x="1600.1599999999999" y="1950.632" width="88" height="48" rx="10" fill="#fff4c7" stroke="#d8a83f" stroke-width="4"/><text x="1644.1599999999999" y="1982.632" font-family="Microsoft YaHei, SimHei, Arial" font-size="22" font-weight="700" fill="#d8a83f" text-anchor="middle">天机匣</text><text x="96" y="2247.2" font-family="Microsoft YaHei, SimHei, Arial" font-size="29" font-weight="500" fill="#202020" text-anchor="start">画面：锦布掀开，鎏金机关匣露出</text><text x="96" y="2289.2" font-family="Microsoft YaHei, SimHei, Arial" font-size="29" font-weight="700" fill="#666666" text-anchor="start">备注：道具特写；锦鲤纹与嵌玉泛光</text>
<rect x="70" y="2357.2" width="2020" height="695.4" rx="22" fill="#fffaf2" stroke="#1f1f1f" stroke-width="4"/><text x="96" y="2400.2" font-family="Microsoft YaHei, SimHei, Arial" font-size="32" font-weight="800" fill="#202020" text-anchor="start">2-1-4｜00:09-00:12｜中近景/侧面/50mm/横移</text><text x="2064" y="2400.2" font-family="Microsoft YaHei, SimHei, Arial" font-size="34" font-weight="800" fill="#7a4c20" text-anchor="end">贵女转向苏明舒</text><rect x="96" y="2419.2" width="1050" height="518.4" rx="14" fill="#fffdf8" stroke="#262626" stroke-width="3"/><line x1="131" y1="2867.6" x2="1111" y2="2867.6" stroke="#9a9a9a" stroke-width="3" stroke-linecap="round"/><circle cx="358.5" cy="2586.008" r="18" fill="#fff" stroke="#2d2d2d" stroke-width="3"/><line x1="358.5" y1="2604.008" x2="358.5" y2="2653.008" stroke="#2d2d2d" stroke-width="4" stroke-linecap="round"/><line x1="330.5" y1="2623.008" x2="386.5" y2="2623.008" stroke="#2d2d2d" stroke-width="4" stroke-linecap="round"/><line x1="358.5" y1="2653.008" x2="336.5" y2="2689.008" stroke="#2d2d2d" stroke-width="4" stroke-linecap="round"/><line x1="358.5" y1="2653.008" x2="380.5" y2="2689.008" stroke="#2d2d2d" stroke-width="4" stroke-linecap="round"/><text x="358.5" y="2723.008" font-family="Microsoft YaHei, SimHei, Arial" font-size="28" font-weight="600" fill="#202020" text-anchor="middle">贵女</text><circle cx="600.0" cy="2575.64" r="18" fill="#f7efe9" stroke="#2d2d2d" stroke-width="3"/><line x1="600.0" y1="2593.64" x2="600.0" y2="2642.64" stroke="#2d2d2d" stroke-width="4" stroke-linecap="round"/><line x1="572.0" y1="2612.64" x2="628.0" y2="2612.64" stroke="#2d2d2d" stroke-width="4" stroke-linecap="round"/><line x1="600.0" y1="2642.64" x2="578.0" y2="2678.64" stroke="#2d2d2d" stroke-width="4" stroke-linecap="round"/><line x1="600.0" y1="2642.64" x2="622.0" y2="2678.64" stroke="#2d2d2d" stroke-width="4" stroke-linecap="round"/><text x="600.0" y="2712.64" font-family="Microsoft YaHei, SimHei, Arial" font-size="28" font-weight="600" fill="#202020" text-anchor="middle">苏明舒</text><circle cx="176" cy="2817.6" r="13" fill="#fff" stroke="#2d2d2d" stroke-width="3"/><circle cx="231" cy="2817.6" r="13" fill="#fff" stroke="#2d2d2d" stroke-width="3"/><circle cx="286" cy="2817.6" r="13" fill="#fff" stroke="#2d2d2d" stroke-width="3"/><circle cx="341" cy="2817.6" r="13" fill="#fff" stroke="#2d2d2d" stroke-width="3"/><circle cx="396" cy="2817.6" r="13" fill="#fff" stroke="#2d2d2d" stroke-width="3"/><circle cx="451" cy="2817.6" r="13" fill="#fff" stroke="#2d2d2d" stroke-width="3"/><rect x="1172" y="2419.2" width="892" height="518.4" rx="14" fill="#f7f4ed" stroke="#555" stroke-width="3"/><polygon points="1209,2896.6 1265,2896.6 1237,2838.6" fill="#7aa0c4" stroke="#202020" stroke-width="3"/><text x="1237" y="2936.6" font-family="Microsoft YaHei, SimHei, Arial" font-size="28" font-weight="800" fill="#7aa0c4" text-anchor="middle">CAM</text><line x1="1257" y1="2847.6" x2="1662.6" y2="2652.48" stroke="#7aa0c4" stroke-width="4" stroke-linecap="round" marker-end="url(#arrow)"/><path d="M 1277 2852.6 L 1546.6399999999999 2533.2479999999996 L 1867.76 2678.3999999999996 Z" fill="#7aa0c4" opacity="0.10" stroke="#7aa0c4" stroke-width="2"/><text x="1994" y="2461.2" font-family="Microsoft YaHei, SimHei, Arial" font-size="26" font-weight="600" fill="#7aa0c4" text-anchor="end">镜头方向 / FOV</text><circle cx="1510.96" cy="2600.64" r="30" fill="#fff" stroke="#2d2d2d" stroke-width="3"/><text x="1510.96" y="2664.64" font-family="Microsoft YaHei, SimHei, Arial" font-size="26" font-weight="700" fill="#202020" text-anchor="middle">贵女</text><circle cx="1725.04" cy="2595.4559999999997" r="30" fill="#f5f0ff" stroke="#2d2d2d" stroke-width="3"/><text x="1725.04" y="2659.4559999999997" font-family="Microsoft YaHei, SimHei, Arial" font-size="26" font-weight="700" fill="#202020" text-anchor="middle">苏明舒</text><line x1="1814.24" y1="2590.272" x2="1510.96" y2="2600.64" stroke="#bd6b61" stroke-width="4" stroke-linecap="round" marker-end="url(#arrow)"/><text x="96" y="2964.6" font-family="Microsoft YaHei, SimHei, Arial" font-size="29" font-weight="500" fill="#202020" text-anchor="start">画面：贵女们从天机匣转看苏明舒</text><text x="96" y="3006.6" font-family="Microsoft YaHei, SimHei, Arial" font-size="29" font-weight="700" fill="#666666" text-anchor="start">备注：视线转移；群体期待</text>
<rect x="70" y="3074.6" width="2020" height="695.4" rx="22" fill="#fffaf2" stroke="#1f1f1f" stroke-width="4"/><text x="96" y="3117.6" font-family="Microsoft YaHei, SimHei, Arial" font-size="32" font-weight="800" fill="#202020" text-anchor="start">2-1-5｜00:12-00:15｜近景/侧前/85mm/慢推</text><text x="2064" y="3117.6" font-family="Microsoft YaHei, SimHei, Arial" font-size="34" font-weight="800" fill="#7a4c20" text-anchor="end">贵女甲兴奋</text><rect x="96" y="3136.6" width="1050" height="518.4" rx="14" fill="#fffdf8" stroke="#262626" stroke-width="3"/><line x1="131" y1="3585.0" x2="1111" y2="3585.0" stroke="#9a9a9a" stroke-width="3" stroke-linecap="round"/><circle cx="358.5" cy="3303.408" r="18" fill="#fff" stroke="#2d2d2d" stroke-width="3"/><line x1="358.5" y1="3321.408" x2="358.5" y2="3370.408" stroke="#2d2d2d" stroke-width="4" stroke-linecap="round"/><line x1="330.5" y1="3340.408" x2="386.5" y2="3340.408" stroke="#2d2d2d" stroke-width="4" stroke-linecap="round"/><line x1="358.5" y1="3370.408" x2="336.5" y2="3406.408" stroke="#2d2d2d" stroke-width="4" stroke-linecap="round"/><line x1="358.5" y1="3370.408" x2="380.5" y2="3406.408" stroke="#2d2d2d" stroke-width="4" stroke-linecap="round"/><text x="358.5" y="3440.408" font-family="Microsoft YaHei, SimHei, Arial" font-size="28" font-weight="600" fill="#202020" text-anchor="middle">贵女甲</text><circle cx="600.0" cy="3293.04" r="18" fill="#f7efe9" stroke="#2d2d2d" stroke-width="3"/><line x1="600.0" y1="3311.04" x2="600.0" y2="3360.04" stroke="#2d2d2d" stroke-width="4" stroke-linecap="round"/><line x1="572.0" y1="3330.04" x2="628.0" y2="3330.04" stroke="#2d2d2d" stroke-width="4" stroke-linecap="round"/><line x1="600.0" y1="3360.04" x2="578.0" y2="3396.04" stroke="#2d2d2d" stroke-width="4" stroke-linecap="round"/><line x1="600.0" y1="3360.04" x2="622.0" y2="3396.04" stroke="#2d2d2d" stroke-width="4" stroke-linecap="round"/><text x="600.0" y="3430.04" font-family="Microsoft YaHei, SimHei, Arial" font-size="28" font-weight="600" fill="#202020" text-anchor="middle">苏明舒</text><rect x="1172" y="3136.6" width="892" height="518.4" rx="14" fill="#f7f4ed" stroke="#555" stroke-width="3"/><polygon points="1209,3614.0 1265,3614.0 1237,3556.0" fill="#7aa0c4" stroke="#202020" stroke-width="3"/><text x="1237" y="3654.0" font-family="Microsoft YaHei, SimHei, Arial" font-size="28" font-weight="800" fill="#7aa0c4" text-anchor="middle">CAM</text><line x1="1257" y1="3565.0" x2="1662.6" y2="3369.88" stroke="#7aa0c4" stroke-width="4" stroke-linecap="round" marker-end="url(#arrow)"/><path d="M 1277 3570.0 L 1546.6399999999999 3250.648 L 1867.76 3395.7999999999997 Z" fill="#7aa0c4" opacity="0.10" stroke="#7aa0c4" stroke-width="2"/><text x="1994" y="3178.6" font-family="Microsoft YaHei, SimHei, Arial" font-size="26" font-weight="600" fill="#7aa0c4" text-anchor="end">镜头方向 / FOV</text><circle cx="1510.96" cy="3318.04" r="30" fill="#fff" stroke="#2d2d2d" stroke-width="3"/><text x="1510.96" y="3382.04" font-family="Microsoft YaHei, SimHei, Arial" font-size="26" font-weight="700" fill="#202020" text-anchor="middle">贵女甲</text><circle cx="1725.04" cy="3312.8559999999998" r="30" fill="#f5f0ff" stroke="#2d2d2d" stroke-width="3"/><text x="1725.04" y="3376.8559999999998" font-family="Microsoft YaHei, SimHei, Arial" font-size="26" font-weight="700" fill="#202020" text-anchor="middle">苏明舒</text><text x="96" y="3682.0" font-family="Microsoft YaHei, SimHei, Arial" font-size="29" font-weight="500" fill="#202020" text-anchor="start">画面：贵女甲看向苏明舒，周围贵女跟着期待</text><text x="96" y="3724.0" font-family="Microsoft YaHei, SimHei, Arial" font-size="29" font-weight="700" fill="#666666" text-anchor="start">备注：贵女甲台词；近景反应</text>
</svg>